<?xml version="1.0" encoding="utf-8"?>
<!-- Generator: Adobe Illustrator 23.0.1, SVG Export Plug-In . SVG Version: 6.00 Build 0)  -->
<svg version="1.1" xmlns="http://www.w3.org/2000/svg" xmlns:xlink="http://www.w3.org/1999/xlink" x="0px" y="0px"
	 viewBox="-150 50 1100 100" enable-background="new -150 50 1100 100" xml:space="preserve">
<g id="Layer_1" xmlns:sketch="http://www.bohemiancoding.com/sketch/ns">
	<rect x="50" y="50.001" display="none" fill="#6ECDE2" width="100" height="99.999"/>
	<path fill="#AFAFAF" d="M92.394,129.48c-0.049-1.757-0.165-7.765-0.168-13.927l-0.019-13.681l-3.802,0.034l-3.854,0.034
		l-0.045-5.056l-0.045-5.007l3.802-0.034l3.803-0.034l0.001-5.651c0.013-5.158,0.044-5.719,0.351-6.695
		c1.255-3.983,3.887-6.687,7.893-8.101c2.048-0.723,3.765-0.935,7.237-0.956c2.848-0.017,6.135,0.162,6.324,0.34
		c0.04,0.039,0.032,2.098-0.011,4.611l-0.062,4.61l-3.597,0.032c-5.029,0.05-6.067,0.31-6.819,1.697
		c-0.355,0.655-0.355,0.858-0.364,5.358l-0.01,4.659l5.549-0.049l5.549-0.049l-0.039,1.289c-0.003,0.724-0.075,2.986-0.161,5.008
		l-0.122,3.669l-5.343,0.097l-5.343,0.098l0.123,13.828l0.123,13.779C98.88,129.423,96.703,129.442,92.394,129.48z"/>
	<rect x="-50" y="50.001" display="none" fill="#6ECDE2" width="100" height="99.999"/>
	<g>
		<path fill="#AFAFAF" d="M40.188,105.75c-0.644-2.521-1.671-4.765-3.115-6.726c-1.446-1.968-3.284-3.541-5.527-4.698
			c-2.25-1.176-4.876-1.753-7.874-1.753c-2.715,0-5.166,0.483-7.391,1.442c-2.223,0.964-4.131,2.282-5.742,3.951
			c-1.606,1.664-2.827,3.645-3.711,5.938c-0.864,2.289-1.308,4.766-1.308,7.416c0,2.738,0.427,5.268,1.273,7.552
			c0.855,2.298,2.053,4.253,3.598,5.905c1.585,1.646,3.469,2.908,5.722,3.811c2.256,0.891,4.769,1.342,7.56,1.342
			c4.005,0,7.443-0.918,10.261-2.758c2.852-1.832,4.943-4.879,6.32-9.144H31.68c-0.331,1.097-1.19,2.152-2.6,3.142
			c-1.423,0.99-3.12,1.484-5.083,1.484c-2.73,0-4.837-0.716-6.295-2.141c-1.462-1.423-2.411-4.074-2.411-6.877h25.572
			C41.047,110.889,40.824,108.26,40.188,105.75z M15.292,107.502c0.045-0.689,0.196-1.474,0.444-2.334
			c0.249-0.885,0.678-1.713,1.305-2.498c0.632-0.771,1.459-1.426,2.466-1.952c1.03-0.533,2.317-0.795,3.873-0.795
			c2.39,0,4.349,0.693,5.507,1.972c1.161,1.292,2.01,3.126,2.243,5.607H15.292z"/>
		<g>
			<path display="none" fill="#AFAFAF" d="M-12.217,98.472c1.239-0.905,1.841-2.399,1.841-4.451c0-1.139-0.201-2.08-0.602-2.81
				c-0.415-0.73-0.964-1.303-1.66-1.702c-0.689-0.416-1.468-0.703-2.373-0.858c-0.886-0.175-1.817-0.242-2.771-0.242h-10.082v11.435
				h10.905C-15.05,99.843-13.468,99.392-12.217,98.472z"/>
			<path display="none" fill="#AFAFAF" d="M-10.528,108.805c-1.414-1.07-3.3-1.604-5.62-1.604h-11.716v13.476h11.5
				c1.063,0,2.072-0.094,3.022-0.309c0.962-0.209,1.817-0.543,2.539-1.038c0.721-0.474,1.318-1.124,1.75-1.954
				c0.437-0.818,0.645-1.881,0.645-3.172C-8.408,111.684-9.118,109.895-10.528,108.805z"/>
			<path fill="#AFAFAF" d="M0.128,106.946c-1.479-2.167-3.71-3.691-6.722-4.557c2.212-1.046,3.867-2.394,4.994-4.037
				c1.119-1.646,1.678-3.704,1.678-6.166c0-2.278-0.375-4.205-1.121-5.742c-0.764-1.563-1.83-2.801-3.194-3.734
				c-1.385-0.933-3.023-1.611-4.943-2.018c-1.931-0.418-4.044-0.621-6.384-0.621h-23.074v48.94h23.721
				c2.193,0,4.333-0.275,6.396-0.824c2.085-0.548,3.947-1.389,5.568-2.536c1.607-1.14,2.912-2.614,3.871-4.433
				c0.948-1.797,1.424-3.933,1.424-6.415C2.342,111.741,1.615,109.13,0.128,106.946z M-27.864,88.409h10.082
				c0.954,0,1.885,0.067,2.771,0.242c0.905,0.156,1.684,0.442,2.373,0.858c0.695,0.399,1.245,0.972,1.66,1.702
				c0.401,0.73,0.602,1.671,0.602,2.81c0,2.052-0.602,3.546-1.841,4.451c-1.251,0.919-2.832,1.371-4.741,1.371h-10.905V88.409z
				 M-9.053,117.377c-0.433,0.83-1.029,1.48-1.75,1.954c-0.721,0.495-1.576,0.829-2.539,1.038c-0.95,0.215-1.959,0.309-3.022,0.309
				h-11.5v-13.476h11.716c2.319,0,4.205,0.533,5.62,1.604c1.411,1.09,2.121,2.879,2.121,5.4
				C-8.408,115.496-8.616,116.559-9.053,117.377z"/>
		</g>
		<rect x="11.611" y="84.759" fill="#AFAFAF" width="23.224" height="5.987"/>
	</g>
	<rect x="-150" y="50.001" display="none" fill="#6ECDE2" width="100" height="99.999"/>
	<path display="none" fill="#CBCCCE" d="M122.906,70.41H77.381c-3.771,0-6.828,3.057-6.828,6.828v45.523
		c0,3.772,3.057,6.829,6.828,6.829h45.525c3.771,0,6.828-3.057,6.828-6.829V77.238C129.734,73.467,126.678,70.41,122.906,70.41z
		 M100.194,84.068c8.927-0.098,16.24,7.057,16.338,15.982c0.098,8.926-7.059,16.241-15.984,16.339
		c-8.925,0.097-16.238-7.062-16.335-15.987C84.114,91.479,91.269,84.166,100.194,84.068z M125.182,122.501
		c0,1.399-1.133,2.538-2.529,2.538H77.18c-1.398,0-2.529-1.139-2.529-2.538V94.539h5.719c-0.417,1.627-0.664,3.326-0.664,5.084
		c0,11.23,9.049,20.334,20.211,20.334c11.162,0,20.211-9.104,20.211-20.334c0-1.758-0.246-3.457-0.662-5.084h5.717V122.501z
		 M125.637,83.613c0,1.256-1.018,2.274-2.277,2.274h-6.828c-1.258,0-2.275-1.019-2.275-2.274v-6.83c0-1.257,1.018-2.275,2.275-2.275
		h6.828c1.26,0,2.277,1.019,2.277,2.275V83.613z"/>
	<rect x="150.144" y="50.001" display="none" fill="#6ECDE2" width="100" height="99.999"/>
	<g display="none">
		<rect x="175.088" y="92.967" display="inline" fill="#AFAFAF" width="11.172" height="35.932"/>
		<path display="inline" fill="#AFAFAF" d="M180.674,75.103c-3.578,0-6.473,2.901-6.473,6.474c0,3.576,2.895,6.476,6.473,6.476
			c3.571,0,6.474-2.9,6.474-6.476C187.147,78.004,184.245,75.103,180.674,75.103z"/>
		<path display="inline" fill="#AFAFAF" d="M214.699,92.07c-5.432,0-9.077,2.979-10.567,5.803h-0.152v-4.906h-10.715v35.932h11.164
			v-17.774c0-4.688,0.887-9.229,6.697-9.229c5.725,0,5.807,5.361,5.807,9.531v17.473h11.154V109.19
			C228.087,99.511,226,92.07,214.699,92.07z"/>
		<path display="inline" fill="#AFAFAF" d="M186.26,128.898h-11.172V92.967h11.172V128.898z M180.674,88.053
			c-3.578,0-6.473-2.9-6.473-6.476c0-3.572,2.895-6.474,6.473-6.474c3.571,0,6.474,2.901,6.474,6.474
			C187.147,85.152,184.245,88.053,180.674,88.053z M228.087,128.898h-11.154v-17.473c0-4.17-0.082-9.531-5.807-9.531
			c-5.811,0-6.697,4.542-6.697,9.229v17.774h-11.164V92.967h10.715v4.906h0.152c1.49-2.824,5.136-5.803,10.567-5.803
			c11.301,0,13.388,7.44,13.388,17.12V128.898z"/>
	</g>
	<rect x="150" y="50.001" display="none" fill="#6ECDE2" width="100" height="99.999"/>
	<g>
		<path fill="#AFAFAF" d="M231.014,84.372c-0.995,0.345-2.592,0.731-3.51,0.854l-1.64,0.227l1.866-1.706
			c1.742-1.597,3.742-4.426,3.397-4.773c-0.083-0.083-0.989,0.241-1.981,0.681c-0.993,0.44-2.686,1.02-3.792,1.308l-1.981,0.51
			l-1.018-0.966c-1.252-1.214-4.083-2.504-6.394-2.953c-0.581-0.114-1.158-0.213-1.755-0.228c-4.174-0.097-8.564,2.201-10.976,5.854
			c-1.579,2.39-2.165,4.614-2.039,7.729l0.112,2.556l-1.81-0.171c-9.487-1.053-18.167-5.413-24.109-12.102l-1.301-1.477
			l-0.624,1.591c-0.485,1.227-0.624,2.381-0.623,5.001c0.002,3.085,0.072,3.577,0.907,5.284c0.506,1.036,1.693,2.698,2.658,3.692
			c0.969,0.995,1.758,1.873,1.699,1.932c-0.18,0.178-4.388-0.757-5.094-1.137c-0.366-0.197-0.679-0.347-0.679-0.284
			c0,1.04,0.911,4.344,1.529,5.568c1.533,3.035,4.936,5.857,8.319,6.875c1.119,0.337,0.178,0.633-2.434,0.797l-2.605,0.17
			l0.849,1.647c1.776,3.379,5.288,5.898,9.056,6.592c1.052,0.193,1.964,0.438,2.037,0.511c0.243,0.243-2.861,2.15-5.207,3.239
			c-3.176,1.47-5.924,2.134-9.904,2.385l-3.341,0.227l3.17,1.534c3.546,1.694,7.854,3,11.32,3.466
			c2.83,0.382,8.815,0.173,12.113-0.455c7.259-1.381,13.344-4.639,18.619-10c6.716-6.822,10.338-15.01,11.036-25.001l0.227-3.239
			l2.828-2.84c1.575-1.562,2.887-2.995,2.887-3.182C232.825,83.885,232.094,83.999,231.014,84.372z"/>
		<path fill="#AFAFAF" d="M229.938,87.271l-2.828,2.84l-0.227,3.239c-0.699,9.991-4.321,18.179-11.036,25.001
			c-5.275,5.361-11.36,8.618-18.619,10c-3.298,0.629-9.283,0.837-12.113,0.455c-3.466-0.466-7.773-1.772-11.32-3.466l-3.17-1.534
			l3.341-0.227c3.981-0.251,6.728-0.915,9.904-2.385c2.346-1.089,5.45-2.995,5.207-3.239c-0.074-0.074-0.985-0.318-2.037-0.511
			c-3.768-0.693-7.28-3.213-9.056-6.592l-0.849-1.647l2.605-0.17c2.611-0.164,3.553-0.46,2.434-0.797
			c-3.382-1.018-6.786-3.84-8.319-6.875c-0.619-1.225-1.529-4.528-1.529-5.568c0-0.062,0.313,0.087,0.679,0.284
			c0.707,0.38,4.914,1.314,5.094,1.137c0.058-0.059-0.731-0.937-1.699-1.932c-0.965-0.994-2.153-2.656-2.658-3.692
			c-0.835-1.707-0.905-2.199-0.907-5.284c-0.001-2.62,0.138-3.774,0.623-5.001l0.624-1.591l1.301,1.477
			c5.942,6.688,14.622,11.048,24.109,12.102l1.81,0.171l-0.112-2.556c-0.126-3.115,0.46-5.339,2.039-7.729
			c2.412-3.654,6.803-5.951,10.976-5.854c0.597,0.015,1.174,0.114,1.755,0.228c2.312,0.45,5.142,1.74,6.394,2.953l1.018,0.966
			l1.981-0.51c1.106-0.287,2.799-0.868,3.792-1.308c0.993-0.44,1.898-0.765,1.981-0.681c0.346,0.347-1.655,3.175-3.397,4.773
			l-1.866,1.706l1.64-0.227c0.918-0.123,2.515-0.509,3.51-0.854c1.081-0.373,1.811-0.487,1.811-0.283
			C232.825,84.275,231.513,85.708,229.938,87.271z"/>
	</g>
	<rect x="350" y="50.001" display="none" fill="#6ECDE2" width="100" height="99.999"/>
	<rect x="373.925" y="88.802" display="none" fill="#85DFB3" width="52.15" height="42.915"/>
	<path display="none" fill="none" stroke="#85DFB3" stroke-width="4" stroke-miterlimit="10" d="M384.789,91.11
		c2.988-20.099,27.434-20.778,30.286,0"/>
	<rect x="561" y="61" display="none" fill="#FFFFFF" width="78" height="78"/>
	<rect x="450" y="50.001" display="none" fill="#6ECDE2" width="100" height="99.999"/>
	<path display="none" fill="#C4C4C4" d="M535.56,96.738h-6.465v-6.527h-6.467v6.527h-6.465v6.525h6.465v6.525h6.467v-6.525h6.465
		 M487.07,96.738v7.831H500c-0.647,3.263-3.879,9.789-12.93,9.789c-7.758,0-13.9-6.526-13.9-14.357
		c0-7.831,6.143-14.358,13.9-14.358c4.525,0,7.436,1.958,9.051,3.59l6.143-5.873c-3.881-3.916-9.051-6.2-15.193-6.2
		c-12.607,0-22.629,10.115-22.629,22.842c0,12.726,10.022,22.841,22.629,22.841c12.93,0,21.66-9.137,21.66-22.188
		c0-1.632,0-2.61-0.324-3.915H487.07z"/>
	<rect x="350" y="50.001" display="none" fill="#6ECDE2" width="100" height="99.999"/>
	<g>
		<path fill="#E57676" d="M389.25,100.757c0,6.675-5.41,12.084-12.083,12.084c-6.674,0-12.084-5.409-12.084-12.084
			c0-6.673,5.41-12.083,12.084-12.083C383.84,88.674,389.25,94.084,389.25,100.757z"/>
		<path fill="#E57676" d="M434.917,75.257c0,6.675-5.41,12.084-12.083,12.084c-6.674,0-12.084-5.409-12.084-12.084
			c0-6.672,5.41-12.082,12.084-12.082C429.507,63.174,434.917,68.585,434.917,75.257z"/>
		<path fill="#E57676" d="M434.917,125.757c0,6.675-5.41,12.084-12.083,12.084c-6.673,0-12.083-5.409-12.083-12.084
			c0-6.673,5.41-12.083,12.083-12.083C429.507,113.674,434.917,119.084,434.917,125.757z"/>
		
			<rect x="381.319" y="83.137" transform="matrix(0.8753 -0.4835 0.4835 0.8753 7.9275 204.776)" fill="#E57676" width="39.5" height="7.757"/>
		
			<rect x="395.706" y="94.209" transform="matrix(0.4835 -0.8753 0.8753 0.4835 106.6257 408.6269)" fill="#E57676" width="7.756" height="39.5"/>
	</g>
	<rect x="450" y="49.959" display="none" fill="#6ECDE2" width="100" height="99.999"/>
	<path fill="#DBDBDB" d="M479.119,103.592l19.957-23.99c0.567-0.682,1.483-0.686,2.045-0.008l19.77,23.834
		c0.907,1.093,0.254,2.97-1.034,2.975l-39.726,0.156C478.842,106.564,478.204,104.692,479.119,103.592z"/>
	<path fill="#DBDBDB" d="M507.056,127.971h-13.939c-1.241,0-2.246-1.006-2.246-2.246V96.587c0-1.241,1.006-2.246,2.246-2.246h13.939
		c1.241,0,2.246,1.006,2.246,2.246v29.137C509.302,126.965,508.296,127.971,507.056,127.971z"/>
	<g>
		<g>
			<path fill="#AFAFAF" d="M-83.951,80.409c4.158,0,7.541,3.383,7.541,7.541v32.098c0,4.158-3.383,7.541-7.541,7.541h-32.098
				c-4.158,0-7.541-3.383-7.541-7.541V87.951c0-4.158,3.383-7.541,7.541-7.541H-83.951 M-83.951,74.409h-32.098
				c-7.479,0-13.541,6.063-13.541,13.541v32.098c0,7.479,6.063,13.541,13.541,13.541h32.098c7.479,0,13.541-6.063,13.541-13.541
				V87.951C-70.409,80.472-76.472,74.409-83.951,74.409L-83.951,74.409z"/>
		</g>
		<g>
			<path fill="#AFAFAF" d="M-100,92.064c6.581,0,11.936,5.354,11.936,11.936s-5.354,11.936-11.936,11.936
				s-11.936-5.354-11.936-11.936S-106.581,92.064-100,92.064 M-100,86.064c-9.906,0-17.936,8.03-17.936,17.936
				s8.03,17.936,17.936,17.936s17.936-8.03,17.936-17.936S-90.094,86.064-100,86.064L-100,86.064z"/>
		</g>
		<g>
			<path fill="#AFAFAF" d="M-83.131,83.452c-1.823,0-3.3,1.478-3.3,3.3c0,1.823,1.478,3.3,3.3,3.3c1.823,0,3.3-1.478,3.3-3.3
				C-79.831,84.93-81.309,83.452-83.131,83.452L-83.131,83.452z"/>
		</g>
	</g>
	<rect x="-220.183" y="129.48" display="none" fill="#E57676" width="1220.669" height="90.023"/>
	
		<image display="none" overflow="visible" width="588" height="406" xlink:href="95C7593D.jpg"  transform="matrix(1 0 0 1 143.3238 -16.3093)">
	</image>
	<rect x="250" y="50" display="none" fill="#6ECDE2" width="100" height="99.999"/>
	<g id="art">
		<g>
			
				<ellipse transform="matrix(0.6562 -0.7546 0.7546 0.6562 26.2005 261.4467)" fill="#FFFFFF" cx="300" cy="101.972" rx="31.567" ry="31.567"/>
			<g>
				<path fill="#AFAFAF" d="M300,70.406c-17.433,0-31.567,14.133-31.567,31.567c0,13.38,8.314,24.812,20.057,29.41
					c-0.286-2.494-0.52-6.339,0.104-9.067c0.572-2.468,3.689-15.692,3.689-15.692s-0.935-1.897-0.935-4.676
					c0-4.391,2.546-7.664,5.716-7.664c2.702,0,4.001,2.026,4.001,4.443c0,2.702-1.715,6.755-2.624,10.522
					c-0.753,3.144,1.585,5.716,4.676,5.716c5.612,0,9.925-5.924,9.925-14.445c0-7.56-5.43-12.834-13.198-12.834
					c-8.989,0-14.263,6.729-14.263,13.692c0,2.702,1.039,5.612,2.338,7.197c0.26,0.312,0.286,0.598,0.208,0.909
					c-0.234,0.987-0.779,3.144-0.883,3.585c-0.13,0.572-0.468,0.701-1.065,0.416c-3.949-1.845-6.417-7.586-6.417-12.237
					c0-9.951,7.223-19.096,20.862-19.096c10.938,0,19.46,7.794,19.46,18.238c0,10.886-6.859,19.641-16.368,19.641
					c-3.196,0-6.209-1.663-7.223-3.637c0,0-1.585,6.027-1.975,7.508c-0.701,2.754-2.624,6.183-3.923,8.288
					c2.962,0.909,6.079,1.403,9.353,1.403c17.433,0,31.567-14.134,31.567-31.567C331.567,84.539,317.433,70.406,300,70.406z"/>
			</g>
		</g>
	</g>
</g>
<g id="Layer_3">
</g>
<g id="Layer_2">
</g>
</svg>
