<?xml version="1.0" encoding="utf-8"?>
<!DOCTYPE svg PUBLIC "-//W3C//DTD SVG 1.1//EN" "http://www.w3.org/Graphics/SVG/1.1/DTD/svg11.dtd">
<svg version="1.1" xmlns="http://www.w3.org/2000/svg" xmlns:xlink="http://www.w3.org/1999/xlink" x="0px" y="0px" width="1100px"
	 height="100px" viewBox="-150 50 1100 100" enable-background="new -150 50 1100 100" xml:space="preserve">
<g id="Layer_1" xmlns:sketch="http://www.bohemiancoding.com/sketch/ns">
	<rect x="-150" y="50" display="none" fill="#6ECDE2" width="100" height="100"/>
	<path fill="#CBCCCE" d="M-108.876,136.198c-0.041-2.158-0.118-9.54-0.054-17.108l0.126-16.805h-4.671h-4.734v-6.211v-6.15h4.67
		h4.671l0.063-6.941c0.072-6.336,0.117-7.024,0.505-8.22c1.585-4.879,4.848-8.171,9.783-9.864c2.523-0.865,4.634-1.107,8.9-1.096
		c3.499,0.01,7.534,0.267,7.764,0.486c0.048,0.049,0.017,2.577-0.063,5.664l-0.126,5.661h-4.419
		c-6.178,0.007-7.456,0.314-8.394,2.01c-0.444,0.801-0.446,1.05-0.505,6.577l-0.063,5.723h6.817h6.816l-0.062,1.583
		c-0.012,0.89-0.125,3.667-0.253,6.149l-0.189,4.506l-6.564,0.061l-6.564,0.063v16.986v16.927
		C-100.909,136.198-103.584,136.198-108.876,136.198z"/>
	<rect x="-49.856" y="50" display="none" fill="#6ECDE2" width="100" height="100"/>
	<g>
		<path fill="#C4C4C4" d="M40.188,100.75c-0.644-2.521-1.671-4.765-3.115-6.726c-1.446-1.968-3.284-3.541-5.527-4.698
			c-2.25-1.176-4.876-1.752-7.874-1.752c-2.715,0-5.166,0.483-7.391,1.442c-2.223,0.964-4.131,2.282-5.742,3.951
			c-1.606,1.664-2.827,3.645-3.711,5.938c-0.864,2.289-1.308,4.766-1.308,7.416c0,2.738,0.427,5.268,1.273,7.552
			c0.855,2.298,2.053,4.253,3.598,5.905c1.585,1.646,3.469,2.908,5.722,3.811c2.256,0.891,4.769,1.342,7.56,1.342
			c4.005,0,7.443-0.918,10.261-2.758c2.852-1.832,4.943-4.879,6.32-9.144H31.68c-0.331,1.097-1.189,2.152-2.6,3.142
			c-1.423,0.99-3.12,1.484-5.083,1.484c-2.73,0-4.837-0.716-6.294-2.141c-1.462-1.423-2.411-4.074-2.411-6.877h25.572
			C41.047,105.889,40.824,103.26,40.188,100.75z M15.292,102.502c0.045-0.689,0.196-1.474,0.444-2.334
			c0.249-0.885,0.678-1.713,1.305-2.498c0.632-0.771,1.459-1.426,2.466-1.952c1.03-0.533,2.317-0.795,3.873-0.795
			c2.39,0,4.349,0.693,5.507,1.972c1.161,1.292,2.01,3.125,2.243,5.607H15.292z"/>
		<g>
			<path display="none" fill="#C4C4C4" d="M-12.217,93.472c1.239-0.905,1.841-2.399,1.841-4.451c0-1.139-0.201-2.08-0.602-2.81
				c-0.415-0.73-0.964-1.303-1.66-1.702c-0.689-0.417-1.468-0.703-2.373-0.858c-0.886-0.175-1.817-0.242-2.771-0.242h-10.082v11.435
				h10.905C-15.05,94.843-13.468,94.392-12.217,93.472z"/>
			<path display="none" fill="#C4C4C4" d="M-10.528,103.805c-1.414-1.07-3.3-1.604-5.62-1.604h-11.716v13.477h11.5
				c1.063,0,2.072-0.094,3.021-0.309c0.962-0.209,1.817-0.543,2.539-1.038c0.721-0.474,1.318-1.124,1.75-1.954
				c0.437-0.818,0.645-1.881,0.645-3.172C-8.408,106.684-9.118,104.895-10.528,103.805z"/>
			<path fill="#C4C4C4" d="M0.128,101.946c-1.479-2.167-3.709-3.691-6.722-4.557c2.211-1.046,3.867-2.394,4.994-4.037
				c1.119-1.646,1.678-3.704,1.678-6.167c0-2.278-0.375-4.205-1.121-5.742c-0.764-1.563-1.83-2.801-3.194-3.734
				c-1.385-0.933-3.023-1.611-4.943-2.018c-1.931-0.418-4.044-0.621-6.384-0.621h-23.074v48.94h23.721
				c2.193,0,4.333-0.275,6.396-0.824c2.085-0.548,3.947-1.389,5.568-2.536c1.607-1.14,2.912-2.614,3.871-4.433
				c0.948-1.797,1.424-3.934,1.424-6.415C2.342,106.741,1.615,104.13,0.128,101.946z M-27.864,83.409h10.082
				c0.954,0,1.885,0.067,2.771,0.242c0.905,0.156,1.684,0.442,2.373,0.858c0.695,0.399,1.245,0.972,1.66,1.702
				c0.401,0.73,0.602,1.671,0.602,2.81c0,2.052-0.602,3.546-1.841,4.451c-1.251,0.919-2.833,1.371-4.741,1.371h-10.905V83.409z
				 M-9.053,112.377c-0.433,0.83-1.029,1.48-1.75,1.954c-0.721,0.495-1.576,0.829-2.539,1.038c-0.95,0.215-1.959,0.309-3.021,0.309
				h-11.5v-13.477h11.716c2.319,0,4.206,0.533,5.62,1.604c1.411,1.09,2.121,2.879,2.121,5.4
				C-8.408,110.496-8.616,111.559-9.053,112.377z"/>
		</g>
		<rect x="11.611" y="79.759" fill="#C4C4C4" width="23.224" height="5.987"/>
	</g>
	<rect x="50.144" y="50" display="none" fill="#6ECDE2" width="100" height="100"/>
	<path fill="#CBCCCE" d="M122.906,70.41H77.381c-3.771,0-6.828,3.057-6.828,6.828v45.523c0,3.772,3.057,6.829,6.828,6.829h45.525
		c3.771,0,6.828-3.057,6.828-6.829V77.238C129.734,73.467,126.678,70.41,122.906,70.41z M100.194,84.068
		c8.927-0.098,16.24,7.057,16.337,15.982s-7.059,16.241-15.984,16.339c-8.925,0.097-16.238-7.062-16.335-15.987
		C84.114,91.479,91.269,84.166,100.194,84.068z M125.182,122.501c0,1.399-1.133,2.538-2.529,2.538H77.18
		c-1.398,0-2.529-1.139-2.529-2.538V94.539h5.719c-0.417,1.627-0.664,3.326-0.664,5.084c0,11.23,9.049,20.334,20.211,20.334
		c11.162,0,20.21-9.104,20.21-20.334c0-1.758-0.246-3.457-0.662-5.084h5.717V122.501z M125.637,83.613
		c0,1.256-1.018,2.274-2.277,2.274h-6.828c-1.258,0-2.275-1.019-2.275-2.274v-6.83c0-1.257,1.018-2.275,2.275-2.275h6.828
		c1.26,0,2.277,1.019,2.277,2.275V83.613z"/>
	<rect x="150.144" y="50" display="none" fill="#6ECDE2" width="100" height="100"/>
	<g>
		<rect x="174.088" y="90.967" fill="#C4C4C4" width="11.172" height="35.932"/>
		<path fill="#C4C4C4" d="M179.674,73.103c-3.578,0-6.473,2.901-6.473,6.474c0,3.576,2.895,6.477,6.473,6.477
			c3.571,0,6.474-2.9,6.474-6.477C186.147,76.004,183.245,73.103,179.674,73.103z"/>
		<path fill="#C4C4C4" d="M213.699,90.07c-5.432,0-9.077,2.979-10.567,5.803h-0.152v-4.906h-10.715v35.932h11.164v-17.774
			c0-4.688,0.887-9.229,6.697-9.229c5.725,0,5.807,5.361,5.807,9.531v17.473h11.154V107.19C227.087,97.511,225,90.07,213.699,90.07z
			"/>
		<path fill="#C4C4C4" d="M185.26,126.898h-11.172V90.967h11.172V126.898z M179.674,86.053c-3.578,0-6.473-2.9-6.473-6.477
			c0-3.572,2.895-6.474,6.473-6.474c3.571,0,6.474,2.901,6.474,6.474C186.147,83.152,183.245,86.053,179.674,86.053z
			 M227.087,126.898h-11.154v-17.473c0-4.17-0.082-9.531-5.807-9.531c-5.811,0-6.697,4.542-6.697,9.229v17.774h-11.164V90.967
			h10.715v4.906h0.152c1.49-2.824,5.136-5.803,10.567-5.803c11.301,0,13.388,7.44,13.388,17.12V126.898z"/>
	</g>
	<rect x="250.144" y="50" display="none" fill="#6ECDE2" width="100" height="100"/>
	<g>
		<path fill="#C4C4C4" d="M326.212,83.277c-0.886,0.307-2.307,0.65-3.124,0.76l-1.46,0.202l1.661-1.519
			c1.551-1.422,3.331-3.939,3.023-4.248c-0.074-0.074-0.88,0.215-1.764,0.606s-2.391,0.908-3.375,1.164l-1.764,0.454l-0.906-0.859
			c-1.114-1.08-3.634-2.229-5.691-2.629c-0.518-0.102-1.031-0.189-1.563-0.203c-3.715-0.086-7.623,1.959-9.77,5.211
			c-1.405,2.127-1.927,4.106-1.814,6.879l0.1,2.275l-1.611-0.152c-8.444-0.938-16.17-4.818-21.459-10.771l-1.158-1.314l-0.556,1.416
			c-0.432,1.092-0.556,2.119-0.555,4.451c0.002,2.746,0.064,3.184,0.808,4.703c0.45,0.922,1.507,2.401,2.366,3.286
			c0.862,0.886,1.564,1.667,1.513,1.72c-0.16,0.158-3.905-0.674-4.534-1.012c-0.326-0.176-0.604-0.309-0.604-0.253
			c0,0.926,0.811,3.866,1.361,4.956c1.364,2.701,4.394,5.213,7.404,6.119c0.996,0.3,0.158,0.563-2.166,0.709l-2.318,0.151
			l0.756,1.466c1.581,3.008,4.707,5.25,8.061,5.867c0.937,0.172,1.748,0.39,1.813,0.455c0.216,0.217-2.547,1.914-4.635,2.883
			c-2.827,1.309-5.272,1.899-8.815,2.123l-2.974,0.202l2.821,1.365c3.156,1.508,6.99,2.67,10.075,3.085
			c2.519,0.34,7.846,0.154,10.781-0.405c6.461-1.229,11.877-4.129,16.572-8.9c5.978-6.072,9.201-13.36,9.823-22.253l0.202-2.883
			l2.518-2.527c1.401-1.391,2.569-2.666,2.569-2.832C327.824,82.844,327.174,82.945,326.212,83.277z"/>
		<path fill="#C4C4C4" d="M325.255,85.857l-2.518,2.527l-0.202,2.883c-0.622,8.893-3.846,16.181-9.823,22.253
			c-4.695,4.771-10.111,7.671-16.572,8.9c-2.936,0.56-8.263,0.745-10.781,0.405c-3.085-0.415-6.919-1.577-10.075-3.085l-2.821-1.365
			l2.974-0.202c3.543-0.224,5.988-0.814,8.815-2.123c2.088-0.969,4.851-2.666,4.635-2.883c-0.065-0.065-0.877-0.283-1.813-0.455
			c-3.354-0.617-6.479-2.859-8.061-5.867l-0.756-1.466l2.318-0.151c2.324-0.146,3.162-0.409,2.166-0.709
			c-3.011-0.906-6.04-3.418-7.404-6.119c-0.551-1.09-1.361-4.03-1.361-4.956c0-0.056,0.278,0.077,0.604,0.253
			c0.629,0.338,4.374,1.17,4.534,1.012c0.052-0.053-0.65-0.834-1.513-1.72c-0.859-0.885-1.916-2.364-2.366-3.286
			c-0.743-1.52-0.806-1.957-0.808-4.703c-0.001-2.332,0.123-3.359,0.555-4.451l0.556-1.416l1.158,1.314
			c5.289,5.953,13.015,9.834,21.459,10.771l1.611,0.152l-0.1-2.275c-0.112-2.772,0.409-4.752,1.814-6.879
			c2.146-3.252,6.055-5.297,9.77-5.211c0.531,0.014,1.045,0.102,1.563,0.203c2.058,0.4,4.577,1.549,5.691,2.629l0.906,0.859
			l1.764-0.454c0.984-0.256,2.491-0.772,3.375-1.164s1.689-0.681,1.764-0.606c0.308,0.309-1.473,2.826-3.023,4.248l-1.661,1.519
			l1.46-0.202c0.817-0.109,2.238-0.453,3.124-0.76c0.962-0.332,1.612-0.434,1.612-0.252
			C327.824,83.191,326.656,84.467,325.255,85.857z"/>
	</g>
	<rect x="350" y="50" display="none" fill="#6ECDE2" width="100" height="100"/>
	<rect x="373.925" y="88.802" fill="#85DFB3" width="52.15" height="42.915"/>
	<path fill="none" stroke="#85DFB3" stroke-width="4" stroke-miterlimit="10" d="M384.789,91.11
		c2.988-20.099,27.434-20.778,30.286,0"/>
	<rect x="561" y="61" display="none" fill="#FFFFFF" width="78" height="78"/>
	<rect x="450" y="50" display="none" fill="#6ECDE2" width="100" height="100"/>
	<path fill="#C4C4C4" d="M535.561,96.738h-6.465v-6.527h-6.467v6.527h-6.465v6.525h6.465v6.525h6.467v-6.525h6.465 M487.07,96.738
		v7.831H500c-0.646,3.263-3.879,9.789-12.93,9.789c-7.758,0-13.9-6.526-13.9-14.357s6.143-14.358,13.9-14.358
		c4.525,0,7.436,1.958,9.051,3.59l6.143-5.873c-3.881-3.916-9.051-6.2-15.193-6.2c-12.607,0-22.629,10.115-22.629,22.842
		c0,12.726,10.021,22.841,22.629,22.841c12.93,0,21.66-9.137,21.66-22.188c0-1.632,0-2.61-0.324-3.915H487.07z"/>
	<rect x="550" y="50" display="none" fill="#6ECDE2" width="100" height="100"/>
	<g>
		<circle fill="#F3736D" cx="577.072" cy="100.757" r="12.083"/>
		<circle fill="#F3736D" cx="622.739" cy="75.257" r="12.083"/>
		<circle fill="#F3736D" cx="622.739" cy="125.757" r="12.083"/>
		
			<rect x="581.224" y="83.137" transform="matrix(0.8753 -0.4835 0.4835 0.8753 32.8497 301.4356)" fill="#F3736D" width="39.499" height="7.757"/>
		
			<rect x="579.739" y="110.081" transform="matrix(0.8753 0.4835 -0.4835 0.8753 129.8362 -275.6564)" fill="#F3736D" width="39.499" height="7.756"/>
	</g>
</g>
<g id="Layer_3">
</g>
<g id="Layer_2">
</g>
</svg>
